HIERARCHY
ROOT Hips
{
	OFFSET 0.000000 0.000000 0.000000
	CHANNELS 6 Xposition Yposition Zposition Zrotation Yrotation Xrotation 
	JOINT LHipJoint
	{
		OFFSET 0.000000 0.000000 0.000000
		CHANNELS 3 Zrotation Yrotation Xrotation
		JOINT LeftUpLeg
		{
			OFFSET 1.363060 -1.794630 0.839290
			CHANNELS 3 Zrotation Yrotation Xrotation
			JOINT LeftLeg
			{
				OFFSET 2.448110 -6.726130 0.000000
				CHANNELS 3 Zrotation Yrotation Xrotation
				JOINT LeftFoot
				{
					OFFSET 2.562200 -7.039590 0.000000
					CHANNELS 3 Zrotation Yrotation Xrotation
					JOINT LeftToeBase
					{
						OFFSET 0.157640 -0.433110 2.322550
						CHANNELS 3 Zrotation Yrotation Xrotation
						End Site
						{
							OFFSET 0.000000 0.000000 0.000000
						}
					}
				}
			}
		}
	}
	JOINT RHipJoint
	{
		OFFSET 0.000000 0.000000 0.000000
		CHANNELS 3 Zrotation Yrotation Xrotation
		JOINT RightUpLeg
		{
			OFFSET -1.305520 -1.794630 0.839290
			CHANNELS 3 Zrotation Yrotation Xrotation
			JOINT RightLeg
			{
				OFFSET -2.542530 -6.985550 0.000000
				CHANNELS 3 Zrotation Yrotation Xrotation
				JOINT RightFoot
				{
					OFFSET -2.568260 -7.056230 0.000000
					CHANNELS 3 Zrotation Yrotation Xrotation
					JOINT RightToeBase
					{
						OFFSET -0.164730 -0.452590 2.363150
						CHANNELS 3 Zrotation Yrotation Xrotation
						End Site
						{
							OFFSET 0.000000 0.000000 0.000000
						}
					}
				}
			}
		}
	}
	JOINT LowerBack
	{
		OFFSET 0.000000 0.000000 0.000000
		CHANNELS 3 Zrotation Yrotation Xrotation
		JOINT Spine
		{
			OFFSET 0.028270 2.035590 -0.193380
			CHANNELS 3 Zrotation Yrotation Xrotation
			JOINT Spine1
			{
				OFFSET 0.056720 2.048850 -0.042750
				CHANNELS 3 Zrotation Yrotation Xrotation
				JOINT Neck
				{
					OFFSET 0.000000 0.000000 0.000000
					CHANNELS 3 Zrotation Yrotation Xrotation
					JOINT Neck1
					{
						OFFSET -0.054170 1.746240 0.172020
						CHANNELS 3 Zrotation Yrotation Xrotation
						JOINT Head
						{
							OFFSET 0.104070 1.761360 -0.123970
							CHANNELS 3 Zrotation Yrotation Xrotation
							End Site
							{
								OFFSET 0.000000 0.000000 0.000000
							}
						}
					}
				}
				JOINT LeftShoulder
				{
					OFFSET 0.000000 0.000000 0.000000
					CHANNELS 3 Zrotation Yrotation Xrotation
					JOINT LeftArm
					{
						OFFSET 3.362410 1.200890 -0.311210
						CHANNELS 3 Zrotation Yrotation Xrotation
						JOINT LeftForeArm
						{
							OFFSET 4.983000 -0.000000 -0.000000
							CHANNELS 3 Zrotation Yrotation Xrotation
							JOINT LeftHand
							{
								OFFSET 3.483560 -0.000000 -0.000000
								CHANNELS 3 Zrotation Yrotation Xrotation
								JOINT LeftFingerBase
								{
									OFFSET 0.000000 0.000000 0.000000
									CHANNELS 3 Zrotation Yrotation Xrotation
									JOINT LeftHandIndex1
									{
										OFFSET 0.715260 -0.000000 -0.000000
										CHANNELS 3 Zrotation Yrotation Xrotation
										End Site
										{
											OFFSET 0.000000 0.000000 0.000000
										}
									}
								}
								JOINT LThumb
								{
									OFFSET 0.000000 0.000000 0.000000
									CHANNELS 3 Zrotation Yrotation Xrotation
									End Site
									{
										OFFSET 0.000000 0.000000 0.000000
									}
								}
							}
						}
					}
				}
				JOINT RightShoulder
				{
					OFFSET 0.000000 0.000000 0.000000
					CHANNELS 3 Zrotation Yrotation Xrotation
					JOINT RightArm
					{
						OFFSET -3.136600 1.374050 -0.404650
						CHANNELS 3 Zrotation Yrotation Xrotation
						JOINT RightForeArm
						{
							OFFSET -5.241900 -0.000000 -0.000000
							CHANNELS 3 Zrotation Yrotation Xrotation
							JOINT RightHand
							{
								OFFSET -3.444170 -0.000000 -0.000000
								CHANNELS 3 Zrotation Yrotation Xrotation
								JOINT RightFingerBase
								{
									OFFSET 0.000000 0.000000 0.000000
									CHANNELS 3 Zrotation Yrotation Xrotation
									JOINT RightHandIndex1
									{
										OFFSET -0.622530 -0.000000 -0.000000
										CHANNELS 3 Zrotation Yrotation Xrotation
										End Site
										{
											OFFSET 0.000000 0.000000 0.000000
										}
									}
								}
								JOINT RThumb
								{
									OFFSET 0.000000 0.000000 0.000000
									CHANNELS 3 Zrotation Yrotation Xrotation
									End Site
									{
										OFFSET 0.000000 0.000000 0.000000
									}
								}
							}
						}
					}
				}
			}
		}
	}
}
MOTION
Frames: 11
Frame Time: 0.008333
-10.075185 16.615647 -1.832476 71.162057 86.107303 96.130949 -8.096058 -0.395804 -0.032222 -14.692940 -4.012084 -49.556075 -2.578355 1.169146 27.846004 0.871704 4.298419 -1.588725 0.828700 -0.000000 -24.743101 11.957038 -1.548871 -4.457226 4.874020 -10.125366 -18.117213 0.591284 -3.580998 46.409724 0.677696 12.507460 9.180866 3.374800 -0.000000 -83.791300 -4.698937 1.589295 6.929268 -1.984929 1.795364 -1.620977 -6.208588 1.771851 0.119717 8.208823 5.859980 4.122021 -3.632096 -0.364584 2.704944 0.000000 0.000000 0.000000 -6.715753 0.236054 3.176016 -46.237365 -12.445885 3.206107 -4.401475 -16.247472 -0.006164 4.584723 0.919491 0.036096 -0.155422 0.055794 0.000000 0.000000 0.000000 0.000000 0.000000 0.000000 0.000000 14.008803 7.029197 -1.900356 73.993334 33.481546 22.753848 0.985847 55.783123 -0.011876 -1.195222 12.208748 -0.128639 -0.025091 -0.347296 -0.000000 0.000000 0.000000 0.000000 0.000000 0.000000 0.000000 
-9.905238 16.584067 -1.809049 69.770758 85.641500 94.315715 -7.976243 -0.279456 -0.307884 -15.374347 -3.662504 -49.317855 -2.542507 1.363996 30.024773 0.927741 4.429901 -2.634332 0.720700 -0.000000 -24.355500 12.253628 -1.360405 -4.561746 4.044593 -10.564473 -18.980073 0.234312 -3.770631 49.282788 0.465687 11.950860 11.631747 3.805600 0.000000 -83.423500 -5.286257 1.593748 7.326815 -2.110586 1.813513 -1.559330 -6.245934 1.790469 0.054206 8.261890 6.056179 4.302456 -3.656612 -0.366809 2.739488 0.000000 0.000000 0.000000 -6.822102 -0.127206 3.168039 -46.409703 -13.223374 2.670378 -4.408539 -14.968628 -0.006976 4.912842 0.952771 0.039771 -0.151011 0.060767 0.000000 0.000000 0.000000 0.000000 0.000000 0.000000 0.000000 14.171879 7.086447 -1.928515 74.341541 32.724374 21.864680 0.969201 54.891089 -0.013226 -1.371103 12.398600 -0.150058 -0.026442 -0.343332 -0.000000 0.000000 0.000000 0.000000 0.000000 0.000000 0.000000 
-9.738337 16.561123 -1.787784 68.749295 85.184184 92.869938 -7.865777 -0.169451 -0.585837 -16.033903 -3.292752 -48.861580 -2.530053 1.513180 31.825327 0.995193 4.599930 -3.863356 0.592500 0.000000 -24.388500 12.512583 -1.149740 -4.664650 3.269754 -10.904894 -19.843987 -0.093501 -3.940218 52.066128 0.230023 11.204883 14.047063 4.125000 0.000001 -81.815699 -5.791063 1.598670 7.741442 -2.216864 1.828323 -1.488171 -6.272054 1.806034 0.004384 8.244555 6.264276 4.504084 -3.683835 -0.369131 2.778362 0.000000 0.000000 0.000000 -6.957982 -0.493645 3.148036 -46.702348 -14.130729 1.995119 -4.399771 -13.544726 -0.007956 5.309278 0.972979 0.043542 -0.145384 0.066670 0.000000 0.000000 0.000000 0.000000 0.000000 0.000000 0.000000 14.275457 7.128269 -1.963016 74.710442 31.975230 20.898169 0.953261 53.809057 -0.014578 -1.587613 12.553930 -0.176275 -0.027124 -0.337388 -0.000000 0.000000 0.000000 0.000000 0.000000 0.000000 0.000000 
-9.574036 16.546919 -1.769879 67.998647 84.753951 91.700088 -7.774045 -0.069801 -0.856053 -16.633274 -2.927678 -48.195545 -2.536182 1.618722 33.235240 1.073427 4.811105 -5.196853 0.447500 0.000000 -24.810200 12.725025 -0.927363 -4.771048 2.577341 -11.162729 -20.706080 -0.383241 -4.094634 54.739920 -0.016648 10.263213 16.273773 4.274000 0.000001 -79.237800 -6.189924 1.600352 8.165081 -2.299466 1.836268 -1.405246 -6.289800 1.815454 -0.015083 8.160129 6.476357 4.708139 -3.714353 -0.371305 2.816622 0.000000 0.000000 0.000000 -7.140826 -0.775582 3.115009 -47.106906 -15.276580 1.244898 -4.374736 -11.949584 -0.009145 5.790874 0.966222 0.046511 -0.138697 0.073610 0.000000 0.000000 0.000000 0.000000 0.000000 0.000000 0.000000 14.325201 7.148484 -2.006343 75.081113 31.255463 19.868425 0.939254 52.548478 -0.015822 -1.837288 12.658696 -0.206092 -0.027055 -0.329308 -0.000000 0.000000 0.000000 0.000000 0.000000 0.000000 0.000000 
-9.411760 16.541236 -1.756021 67.431399 84.362183 90.721781 -7.706800 0.017623 -1.108150 -17.146132 -2.591104 -47.333544 -2.555221 1.683323 34.255626 1.160570 5.064784 -6.545916 0.291300 -0.000000 -25.547200 12.888252 -0.703229 -4.883208 1.982750 -11.356658 -21.569060 -0.634145 -4.239397 57.290736 -0.262351 9.121253 18.177794 4.211700 -0.000000 -76.059000 -6.473141 1.597128 8.584602 -2.356646 1.836262 -1.317453 -6.298550 1.816911 -0.019283 8.018970 6.696409 4.925583 -3.748695 -0.373561 2.858150 0.000000 0.000000 0.000000 -7.341620 -1.068380 3.073094 -47.657293 -16.487236 0.346937 -4.324391 -10.309733 -0.010576 6.362215 0.936493 0.048778 -0.130564 0.081183 0.000000 0.000000 0.000000 0.000000 0.000000 0.000000 0.000000 14.333174 7.155677 -2.044361 75.421995 30.552099 18.773401 0.929171 51.129566 -0.016845 -2.110187 12.695078 -0.237808 -0.026177 -0.319316 -0.000000 0.000000 0.000000 0.000000 0.000000 0.000000 0.000000 
-9.250882 16.543736 -1.746934 66.961283 84.028743 89.860386 -7.672793 0.086479 -1.334240 -17.538414 -2.297424 -46.314162 -2.579481 1.711772 34.913532 1.252564 5.352917 -7.827015 0.130700 0.000000 -26.492900 12.996612 -0.489150 -5.000739 1.518478 -11.488911 -22.443948 -0.851015 -4.378346 59.704357 -0.497983 7.771766 19.655790 3.918800 0.000000 -72.676000 -6.622582 1.585463 8.986453 -2.385533 1.825582 -1.223860 -6.303037 1.808014 0.006063 7.831796 6.913520 5.133756 -3.786755 -0.375604 2.897075 0.000000 0.000000 0.000000 -7.580581 -1.275132 3.022279 -48.330363 -17.869846 -0.571164 -4.251402 -8.624409 -0.012277 7.027264 0.871627 0.049144 -0.121420 0.089222 0.000000 0.000000 0.000000 0.000000 0.000000 0.000000 0.000000 14.309782 7.144551 -2.080209 75.715686 29.881713 17.630249 0.925539 49.576938 -0.017533 -2.394850 12.655566 -0.269420 -0.024414 -0.307522 -0.000000 0.000000 0.000000 0.000000 0.000000 0.000000 0.000000 
-9.090752 16.553865 -1.742550 66.512905 83.759962 89.048909 -7.673619 0.135846 -1.527572 -17.798932 -2.059351 -45.173473 -2.602609 1.708907 35.241239 1.345346 5.671675 -8.964911 -0.025200 -0.000001 -27.523800 13.052775 -0.291788 -5.120092 1.193711 -11.563977 -23.343162 -1.041991 -4.513469 61.971766 -0.718076 6.229269 20.644533 3.408600 -0.000000 -69.387600 -6.642192 1.564061 9.355300 -2.387287 1.803992 -1.131313 -6.303824 1.787873 0.047953 7.616203 7.130296 5.337966 -3.828035 -0.377563 2.935649 0.000000 0.000000 0.000000 -7.829015 -1.461251 2.966674 -49.145117 -19.283026 -1.500720 -4.153328 -7.027362 -0.014230 7.770331 0.779028 0.047209 -0.111354 0.097137 0.000000 0.000000 0.000000 0.000000 0.000000 0.000000 0.000000 14.270829 7.125464 -2.103263 75.936793 29.227536 16.436611 0.930830 47.924822 -0.017806 -2.675525 12.530250 -0.298330 -0.021800 -0.294341 -0.000000 0.000000 0.000000 0.000000 0.000000 0.000000 0.000000 
-8.930758 16.570974 -1.742579 66.012963 83.564922 88.227348 -7.711358 0.163596 -1.684650 -17.917454 -1.878709 -43.961735 -2.618488 1.681038 35.289082 1.434143 6.011121 -9.905629 -0.166900 -0.000000 -28.518900 13.058119 -0.116851 -5.235352 1.025651 -11.574629 -24.283924 -1.214741 -4.644180 64.082363 -0.920074 4.522470 21.114079 2.718400 0.000000 -66.369600 -6.533772 1.531165 9.677505 -2.362918 1.770720 -1.041267 -6.304686 1.755788 0.112371 7.388407 7.333086 5.521882 -3.872080 -0.379268 2.969827 0.000000 0.000000 0.000000 -8.089213 -1.576013 2.906465 -50.088216 -20.758396 -2.306821 -4.037129 -5.568091 -0.016379 8.563594 0.660013 0.042276 -0.101086 0.104539 0.000000 0.000000 0.000000 0.000000 0.000000 0.000000 0.000000 14.232046 7.092132 -2.114027 76.072722 28.600039 15.216361 0.948129 46.200634 -0.017626 -2.944226 12.326367 -0.323335 -0.018250 -0.280134 -0.000000 0.000000 0.000000 0.000000 0.000000 0.000000 0.000000 
-8.770475 16.594363 -1.746212 65.400432 83.442738 87.343175 -7.782727 0.172056 -1.804504 -17.901993 -1.750551 -42.722206 -2.623384 1.634233 35.107714 1.515259 6.363770 -10.615856 -0.285801 0.000000 -29.385500 13.019150 0.034092 -5.338693 1.013638 -11.514439 -25.278289 -1.374800 -4.768321 66.023685 -1.103326 2.703046 21.066981 1.909100 -0.000000 -63.686100 -6.314179 1.487173 9.941174 -2.315799 1.726909 -0.960350 -6.305340 1.712335 0.184991 7.167186 7.528181 5.691167 -3.917110 -0.380804 3.001861 0.000000 0.000000 0.000000 -8.328970 -1.674197 2.844067 -51.176866 -22.169516 -2.941158 -3.907875 -4.372694 -0.018591 9.362394 0.529453 0.034746 -0.091174 0.110898 0.000000 0.000000 0.000000 0.000000 0.000000 0.000000 0.000000 14.205287 7.059072 -2.105198 76.109390 27.973878 13.960545 0.978882 44.446483 -0.016993 -3.182049 12.046408 -0.341834 -0.013962 -0.265413 0.000000 0.000000 0.000000 0.000000 0.000000 0.000000 0.000000 
-8.609535 16.623264 -1.752361 64.615173 83.389884 86.345652 -7.882966 0.164163 -1.889922 -17.766389 -1.659524 -41.499387 -2.615821 1.574774 34.752050 1.585718 6.718021 -11.088707 -0.376200 -0.000000 -30.066400 12.942753 0.161381 -5.422002 1.154520 -11.373168 -26.336387 -1.524453 -4.882624 67.779658 -1.267969 0.836661 20.532631 1.052200 -0.000000 -61.315300 -6.002899 1.432688 10.139494 -2.250196 1.673619 -0.889737 -6.308138 1.658698 0.268131 6.967819 7.696007 5.832973 -3.962796 -0.382089 3.028540 0.000000 0.000000 0.000000 -8.539188 -1.728567 2.777340 -52.404125 -23.523866 -3.299010 -3.776469 -3.485426 -0.020688 10.111221 0.392837 0.024822 -0.082530 0.116002 0.000000 0.000000 0.000000 0.000000 0.000000 0.000000 0.000000 14.206986 7.012246 -2.077290 76.043682 27.364816 12.707678 1.025423 42.679136 -0.015966 -3.388907 11.715354 -0.354330 -0.008863 -0.250596 0.000000 0.000000 0.000000 0.000000 0.000000 0.000000 0.000000 
-8.447733 16.656975 -1.759658 63.601924 83.396076 85.183699 -8.004586 0.145519 -1.945776 -17.535819 -1.582857 -40.326384 -2.597034 1.507917 34.269991 1.643937 7.062397 -11.338444 -0.435100 -0.000000 -30.544401 12.837909 0.267342 -5.476296 1.432519 -11.141137 -27.461322 -1.662988 -4.983501 69.331711 -1.414013 -0.998853 19.565415 0.222400 0.000000 -59.175400 -5.625735 1.370031 10.267597 -2.171030 1.613224 -0.835584 -6.312387 1.596796 0.344478 6.807153 7.859355 5.958960 -4.006390 -0.383212 3.053544 0.000000 0.000000 0.000000 -8.691522 -1.789043 2.707686 -53.775184 -24.717958 -3.368948 -3.650740 -2.986608 -0.022452 10.745075 0.257528 0.013106 -0.075753 0.119711 0.000000 0.000000 0.000000 0.000000 0.000000 0.000000 0.000000 14.242922 6.980792 -2.026311 75.872138 26.725981 11.416808 1.085800 40.957232 -0.014599 -3.530398 11.329709 -0.357222 -0.003561 -0.236073 0.000000 0.000000 0.000000 0.000000 0.000000 0.000000 0.000000 
